<svg width="14" height="12" viewBox="0 0 14 12" fill="none" xmlns="http://www.w3.org/2000/svg">
<path d="M6.55163 0.408494C6.73504 0.0368708 7.26496 0.0368702 7.44837 0.408493L8.94091 3.43272C9.01374 3.58029 9.15453 3.68258 9.31738 3.70624L12.6548 4.1912C13.0649 4.25079 13.2287 4.75478 12.9319 5.04404L10.5169 7.39808C10.3991 7.51294 10.3453 7.67844 10.3731 7.84064L10.9432 11.1646C11.0133 11.573 10.5846 11.8845 10.2178 11.6917L7.23267 10.1223C7.08701 10.0457 6.91299 10.0457 6.76733 10.1223L3.78224 11.6917C3.41543 11.8845 2.98671 11.573 3.05676 11.1646L3.62687 7.84064C3.65468 7.67844 3.60091 7.51294 3.48307 7.39808L1.06808 5.04404C0.771321 4.75478 0.935076 4.25079 1.34519 4.1912L4.68262 3.70624C4.84547 3.68258 4.98626 3.58029 5.05909 3.43272L6.55163 0.408494Z" fill="#FFC452"/>
</svg>
